<svg width="25" height="24" viewBox="0 0 25 24" fill="none" xmlns="http://www.w3.org/2000/svg">
<path fill-rule="evenodd" clip-rule="evenodd" d="M20.9248 7C20.9248 7.41421 20.589 7.75 20.1748 7.75L4.1748 7.75C3.76059 7.75 3.4248 7.41421 3.4248 7C3.4248 6.58579 3.76059 6.25 4.1748 6.25L20.1748 6.25C20.589 6.25 20.9248 6.58579 20.9248 7Z" fill="#9A9BB1"/>
<path fill-rule="evenodd" clip-rule="evenodd" d="M20.9248 12C20.9248 12.4142 20.589 12.75 20.1748 12.75L4.1748 12.75C3.76059 12.75 3.4248 12.4142 3.4248 12C3.4248 11.5858 3.76059 11.25 4.1748 11.25L20.1748 11.25C20.589 11.25 20.9248 11.5858 20.9248 12Z" fill="#9A9BB1"/>
<path fill-rule="evenodd" clip-rule="evenodd" d="M20.9248 17C20.9248 17.4142 20.589 17.75 20.1748 17.75L4.1748 17.75C3.76059 17.75 3.4248 17.4142 3.4248 17C3.4248 16.5858 3.76059 16.25 4.1748 16.25L20.1748 16.25C20.589 16.25 20.9248 16.5858 20.9248 17Z" fill="#9A9BB1"/>
</svg>
